<svg width="15" height="14" viewBox="0 0 15 14" fill="none" xmlns="http://www.w3.org/2000/svg">
<rect x="0.100586" width="14" height="14" rx="4.2" fill="#0071E3"/>
<path d="M6.36471 10.3277C6.6698 10.3277 6.90045 10.2106 7.05665 9.97627L10.4358 4.8837C10.492 4.80071 10.5335 4.71895 10.5603 4.6384C10.5872 4.55542 10.6006 4.47609 10.6006 4.40043C10.6006 4.19053 10.5274 4.01724 10.3809 3.88056C10.2369 3.74144 10.0587 3.67188 9.8464 3.67188C9.69996 3.67188 9.57548 3.70116 9.47297 3.75974C9.3729 3.81588 9.27771 3.91351 9.18741 4.05263L6.35006 8.50817L4.92956 6.80577C4.7758 6.62759 4.58298 6.53851 4.35111 6.53851C4.13388 6.53851 3.95449 6.60807 3.81293 6.74719C3.67137 6.88631 3.60059 7.06082 3.60059 7.27072C3.60059 7.36591 3.61523 7.45622 3.64452 7.54165C3.67625 7.62463 3.73361 7.71128 3.81659 7.80158L5.70205 10.0239C5.87534 10.2264 6.09623 10.3277 6.36471 10.3277Z" fill="white"/>
</svg>
